<?xml version="1.0" standalone="no"?>
<!DOCTYPE svg PUBLIC "-//W3C//DTD SVG 20010904//EN"
        "http://www.w3.org/TR/2001/REC-SVG-20010904/DTD/svg10.dtd">
<svg version="1.0" xmlns="http://www.w3.org/2000/svg"
     width="220.000000pt" height="220.000000pt" viewBox="0 0 220.000000 220.000000"
     preserveAspectRatio="xMidYMid meet">

    <g transform="translate(0.000000,220.000000) scale(0.100000,-0.100000)"
       fill="#000000" stroke="none">
        <path d="M1070 2033 c-17 -21 -39 -48 -49 -59 -13 -17 -34 -23 -90 -29 l-74
-7 -51 55 c-53 58 -91 76 -124 58 -24 -13 -85 -127 -106 -200 -10 -36 -16 -93
-16 -165 l0 -110 45 -57 c25 -32 45 -61 45 -65 0 -4 -42 -3 -92 2 -51 4 -132
8 -180 9 -73 0 -91 -3 -115 -21 -58 -44 -31 -111 60 -149 58 -24 91 -42 94
-52 2 -4 -24 -18 -56 -31 -81 -31 -136 -74 -162 -124 -18 -35 -21 -54 -17
-117 5 -87 20 -120 90 -204 46 -56 49 -61 42 -102 l-6 -44 62 -45 c79 -59 99
-63 153 -37 24 12 47 21 52 21 26 0 572 -308 579 -327 3 -7 1 -25 -4 -39 -15
-40 14 -81 85 -120 73 -41 98 -42 134 -6 l28 27 74 -24 c241 -78 536 0 603
161 10 24 16 68 16 122 0 77 -2 87 -27 118 -33 40 -46 51 -95 84 -38 24 -48
50 -27 71 19 19 -21 75 -81 111 -64 38 -90 40 -131 10 -29 -22 -30 -22 -62 -5
-18 10 -68 44 -112 75 -97 71 -104 85 -104 244 -1 65 -6 138 -13 162 -14 54 0
82 70 129 25 18 64 48 87 67 22 19 49 40 60 46 27 15 65 83 65 117 0 42 -16
64 -54 77 -44 14 -95 2 -248 -57 -65 -25 -120 -44 -122 -42 -2 2 3 32 12 67
13 56 13 71 0 140 -9 42 -29 111 -47 152 -63 152 -126 189 -191 113z m-128
-113 c50 5 91 10 92 12 2 2 12 19 24 38 31 52 67 83 89 76 62 -20 154 -277
138 -386 -15 -96 -76 -176 -175 -227 -50 -26 -64 -28 -165 -28 -122 0 -171 13
-261 70 -74 48 -97 90 -102 192 -7 124 43 290 106 356 l27 28 68 -70 69 -71
90 10z m737 -296 c22 -7 7 -81 -26 -122 -16 -19 -58 -54 -94 -76 -97 -61 -159
-108 -159 -121 0 -7 7 -56 15 -111 8 -54 15 -151 15 -213 0 -110 1 -116 26
-142 14 -14 56 -80 94 -145 37 -66 84 -147 104 -181 41 -70 42 -80 20 -111
-12 -18 -25 -22 -68 -22 -72 0 -133 23 -181 69 -22 21 -60 53 -85 71 -25 19
-72 60 -106 91 -34 32 -72 60 -85 63 -13 2 -57 9 -97 14 -50 7 -101 24 -163
53 l-89 42 -28 -26 c-26 -25 -35 -27 -106 -27 -108 0 -142 24 -100 71 15 17
15 22 -4 71 -34 85 -33 121 4 145 26 17 27 17 51 -12 l25 -30 -5 92 c-3 59
-10 101 -19 115 -10 14 -45 34 -94 52 -114 41 -244 108 -261 133 -17 25 -4 59
24 66 52 15 98 16 159 7 38 -6 114 -12 169 -14 76 -3 111 -9 149 -26 92 -42
260 -37 371 10 24 10 68 41 99 69 31 28 61 51 67 51 6 0 70 22 142 49 168 63
175 64 236 45z m-1112 -439 c34 -15 47 -42 41 -91 -2 -21 -9 -30 -24 -32 -12
-2 -34 -16 -49 -32 l-28 -30 12 -82 c7 -46 11 -105 9 -132 -3 -43 0 -50 25
-69 38 -29 136 -35 197 -12 78 29 93 29 157 -4 40 -20 89 -34 146 -42 78 -11
90 -16 139 -55 29 -25 80 -64 113 -89 33 -24 68 -51 78 -59 9 -9 20 -16 25
-16 4 0 12 -10 17 -22 13 -29 122 -67 191 -68 41 0 57 5 78 25 32 29 35 79 6
115 -11 14 -20 30 -20 36 0 6 -6 17 -14 23 -8 7 -18 25 -21 41 -4 16 -30 64
-59 107 -71 106 -71 108 -57 99 7 -5 78 -52 159 -106 81 -53 185 -118 232
-144 98 -54 125 -80 140 -138 16 -57 -2 -151 -38 -203 -59 -85 -223 -141 -385
-133 -117 7 -211 42 -357 134 -58 36 -188 111 -290 166 -252 136 -466 259
-580 333 -158 102 -217 187 -207 297 6 73 23 98 93 145 92 61 184 74 271 38z"/>
        <path d="M1146 1730 c-32 -10 -68 -27 -80 -38 -35 -33 -89 -38 -126 -12 -26
19 -46 23 -113 24 -93 1 -137 -8 -137 -28 0 -24 72 -76 127 -92 57 -17 91 -12
122 17 25 23 93 25 143 4 48 -20 102 -4 150 45 42 41 48 74 19 90 -26 13 -35
12 -105 -10z"/>
    </g>
</svg>
